<svg width="31" height="31" viewBox="0 0 31 31" fill="none" xmlns="http://www.w3.org/2000/svg">
<path d="M28.5875 15.8012C28.5875 14.6861 28.4983 13.8723 28.3054 13.0285H15.7573V18.0616H23.1227C22.9743 19.3124 22.1724 21.1961 20.3904 22.4618L20.3654 22.6304L24.3329 25.7494L24.6078 25.7772C27.1322 23.4113 28.5875 19.9302 28.5875 15.8012Z" fill="#4285F4"/>
<path d="M15.7563 29.0624C19.3648 29.0624 22.3941 27.8568 24.6068 25.7773L20.3894 22.4619C19.2609 23.2606 17.7462 23.8181 15.7563 23.8181C12.2221 23.8181 9.22251 21.4523 8.15323 18.1822L7.9965 18.1957L3.87109 21.4357L3.81714 21.5879C6.01487 26.0183 10.5292 29.0624 15.7563 29.0624Z" fill="#34A853"/>
<path d="M8.15398 18.1824C7.87184 17.3386 7.70856 16.4343 7.70856 15.5001C7.70856 14.5657 7.87184 13.6616 8.13914 12.8177L8.13166 12.638L3.95454 9.34598L3.81788 9.41195C2.91208 11.2504 2.39233 13.315 2.39233 15.5001C2.39233 17.6851 2.91208 19.7496 3.81788 21.5881L8.15398 18.1824Z" fill="#FBBC05"/>
<path d="M15.7564 7.18163C18.266 7.18163 19.9588 8.28169 20.9241 9.20099L24.6959 5.46375C22.3794 3.27869 19.3649 1.9375 15.7564 1.9375C10.5292 1.9375 6.01489 4.9815 3.81714 9.41188L8.13841 12.8176C9.22255 9.54756 12.2222 7.18163 15.7564 7.18163Z" fill="#EB4335"/>
</svg>
